<svg width="140" height="38" viewBox="0 0 140 38" fill="none" xmlns="http://www.w3.org/2000/svg">
<path d="M30.3484 24.9046C31.4438 24.9046 32.4504 26.2961 34.6116 26.2961C38.1346 26.2961 41.3616 22.6546 41.3616 17.296C41.3616 12.6775 39.2004 9.71699 36.1511 9.71699C34.4932 9.71699 33.0129 10.8716 31.3254 12.3519V2.22681L31.0885 2.07878C29.4898 3.47024 28.128 4.15117 25.8188 4.15117V4.71367C27.8911 4.71367 28.6017 4.92091 28.6017 6.84526V26.2961H29.1642C29.2826 25.2895 29.7859 24.9046 30.3484 24.9046ZM34.8484 25.5559C33.1609 25.5559 31.6806 24.1645 31.3254 22.1217V16.319C31.3254 13.9802 32.5392 11.2861 34.9372 11.2861C37.0688 11.2861 38.3419 13.6249 38.3419 18.6874C38.3419 23.2467 37.0392 25.5559 34.8484 25.5559ZM55.8103 26V25.4375C53.7083 25.2303 53.5898 25.2007 53.5898 22.0921V14.1282C53.5898 11.2861 52.4352 9.71699 49.6523 9.71699C46.8694 9.71699 43.672 11.5525 43.672 13.2993C43.672 13.921 44.0569 14.6019 45.1819 14.6019C47.8464 14.6019 45.5964 10.5459 48.5569 10.5459C50.1852 10.5459 50.8661 11.8782 50.8661 14.9276V18.1249L47.5799 19.2203C44.3825 20.2861 43.2279 21.1743 43.2279 22.9802C43.2279 24.4901 44.0865 26.2961 46.3661 26.2961C48.024 26.2961 49.5635 25.2895 50.8661 24.2829V26H55.8103ZM47.7872 24.727C46.5437 24.727 46.0108 23.6908 46.0108 22.6546C46.0108 21.4704 46.603 20.5526 48.6457 19.8717L50.8661 19.1611V22.0921C50.6293 24.0164 48.8826 24.727 47.7872 24.727ZM68.6007 20.9375L68.0382 20.819C66.9132 23.75 65.2257 25.2303 62.5612 25.2303H59.9559L68.1567 10.8716V10.3091H61.377C59.6303 10.3091 58.6533 10.3091 58.3573 9.42094H57.8244L56.8178 14.1874L57.3803 14.3058C58.2388 11.819 60.1632 11.0788 62.5908 11.0788H64.8705L56.6697 25.4375V26H62.8277C64.604 26 65.7586 26 66.2619 26.8882H66.854L68.6007 20.9375ZM82.5246 26V25.4375C80.4226 25.2303 80.3042 25.2007 80.3042 22.0921V14.1282C80.3042 11.2861 79.1495 9.71699 76.3666 9.71699C73.5837 9.71699 70.3863 11.5525 70.3863 13.2993C70.3863 13.921 70.7712 14.6019 71.8962 14.6019C74.5607 14.6019 72.3107 10.5459 75.2712 10.5459C76.8995 10.5459 77.5805 11.8782 77.5805 14.9276V18.1249L74.2942 19.2203C71.0969 20.2861 69.9422 21.1743 69.9422 22.9802C69.9422 24.4901 70.8008 26.2961 73.0804 26.2961C74.7383 26.2961 76.2778 25.2895 77.5805 24.2829V26H82.5246ZM74.5015 24.727C73.2581 24.727 72.7252 23.6908 72.7252 22.6546C72.7252 21.4704 73.3173 20.5526 75.36 19.8717L77.5805 19.1611V22.0921C77.3436 24.0164 75.5969 24.727 74.5015 24.727ZM91.644 25.4375C88.6538 25.2303 88.5354 25.2007 88.5354 22.0921V17.1776C88.5354 13.24 89.8084 11.3749 91.1111 11.3749C92.2065 11.3749 92.1473 12.9144 93.3907 12.9144C94.2789 12.9144 94.8414 12.1446 94.8414 11.3453C94.8414 10.3387 93.9236 9.71699 92.621 9.71699C91.2295 9.71699 90.0157 10.4571 88.5354 12.4111V9.86502L88.0025 9.71699C86.6999 11.1085 85.338 11.7894 83.0288 11.7894V12.3519C85.1012 12.3519 85.8117 12.5591 85.8117 14.4835V22.0921C85.8117 25.2007 85.7229 25.2599 83.3248 25.4375V26H91.644V25.4375ZM98.2224 26.2961C99.4954 26.2961 100.502 25.3487 100.502 24.046C100.502 22.773 99.4954 21.7368 98.2224 21.7368C96.979 21.7368 95.9428 22.773 95.9428 24.046C95.9428 25.3487 96.979 26.2961 98.2224 26.2961ZM109.493 30.7665C107.095 30.5592 106.976 30.5296 106.976 27.4211V25.171C107.775 25.5855 108.723 26.2961 110.262 26.2961C113.785 26.2961 117.012 22.6546 117.012 17.296C117.012 12.6775 114.851 9.71699 111.802 9.71699C110.144 9.71699 108.664 10.8716 106.976 12.3519V9.71699L106.739 9.56897C105.141 10.9604 103.779 11.6413 101.47 11.6413V12.2039C103.542 12.2039 104.252 12.4111 104.252 14.3354V27.4211C104.252 30.5296 104.164 30.5888 102.062 30.7665V31.329H109.493V30.7665ZM110.499 25.5559C108.812 25.5559 107.331 24.1645 106.976 22.1217V16.319C106.976 13.9802 108.19 11.2861 110.588 11.2861C112.72 11.2861 113.993 13.6249 113.993 18.6874C113.993 23.2467 112.69 25.5559 110.499 25.5559ZM125.728 25.4375C123.626 25.2303 123.508 25.2007 123.508 22.0921V18.1249L124.426 17.2072L129.103 26H133.633V25.4375C132.33 25.4375 131.975 24.8158 130.376 22.0921L126.35 15.2236L128.334 13.1808C129.814 11.6413 130.85 11.0788 132.538 10.8716V10.3091H127.031V10.8716C128.867 11.0492 128.393 12.0854 125.936 14.5131L123.508 16.9111V2.22681L123.271 2.07878C121.672 3.47024 120.311 4.15117 118.001 4.15117V4.71367C120.074 4.71367 120.784 4.92091 120.784 6.84526V22.0921C120.784 25.2007 120.695 25.2599 118.297 25.4375V26H125.728V25.4375Z" fill="#248F59"/>
<path fill-rule="evenodd" clip-rule="evenodd" d="M16.8969 5.68117H19.7131C21.262 5.68117 22.5292 6.94844 22.5292 8.49732V25.3942C22.5292 26.9431 21.262 28.2104 19.7131 28.2104H2.81615C1.26727 28.2104 0 26.9431 0 25.3942V8.49732C0 6.94844 1.26727 5.68117 2.81615 5.68117H5.63231C5.63231 2.56932 8.15277 0.0488586 11.2646 0.0488586C14.3765 0.0488586 16.8969 2.56932 16.8969 5.68117ZM7.04039 12.7216C7.81483 12.7216 8.44846 12.0879 8.44846 11.3135V8.49732H5.63231V11.3135C5.63231 12.0879 6.26594 12.7216 7.04039 12.7216ZM14.0808 5.68117C14.0808 4.13228 12.8135 2.86501 11.2646 2.86501C9.71573 2.86501 8.44846 4.13228 8.44846 5.68117H14.0808ZM15.4888 12.7216C16.2633 12.7216 16.8969 12.0879 16.8969 11.3135V8.49732H14.0808V11.3135C14.0808 12.0879 14.7144 12.7216 15.4888 12.7216ZM7.86582 17.5285C7.86582 15.6494 9.38557 14.1297 11.2646 14.1297C13.1437 14.1297 14.6634 15.6494 14.6634 17.5285C14.6634 20.0776 11.2646 23.8405 11.2646 23.8405C11.2646 23.8405 7.86582 20.0776 7.86582 17.5285ZM10.0508 17.5285C10.0508 18.1985 10.5946 18.7423 11.2646 18.7423C11.9347 18.7423 12.4785 18.1985 12.4785 17.5285C12.4785 16.8584 11.9347 16.3146 11.2646 16.3146C10.5946 16.3146 10.0508 16.8584 10.0508 17.5285Z" fill="#248F59"/>
</svg>
